solid enclosure
facet normal -0.08715574274764647 -0.9961946980917465 3.0604704958900305e-15
  outer loop
    vertex -111.54312308207193 105.05240825165095 -0.999999319046285
    vertex -127.23318957701646 106.42511119992635 -9.99999931904626
    vertex -111.54312308207183 105.05240825165087 -9.999999319046132
  endloop
endfacet
facet normal -0.08715574274764647 -0.9961946980917465 3.0604704958900305e-15
  outer loop
    vertex -127.23318957701646 106.42511119992635 -9.99999931904626
    vertex -111.54312308207193 105.05240825165095 -0.999999319046285
    vertex -127.23318957701663 106.42511119992632 -0.9999993190464458
  endloop
endfacet
facet normal -0.08715574274766645 0.996194698091745 -4.412998760075944e-15
  outer loop
    vertex -127.23318957701697 117.03626129291264 -9.999999319046243
    vertex -111.54312308207177 118.40896424118843 -1.0000000507665674
    vertex -111.5431230820718 118.40896424118836 -9.999999319046205
  endloop
endfacet
facet normal -0.08715574274766645 0.996194698091745 -4.412998760075944e-15
  outer loop
    vertex -111.54312308207177 118.40896424118843 -1.0000000507665674
    vertex -127.23318957701697 117.03626129291264 -9.999999319046243
    vertex -127.23318957701697 117.03626129291267 -0.9999993190464063
  endloop
endfacet
facet normal -1.6078792162688712e-14 -1.0879514199453117e-14 1.0
  outer loop
    vertex -117.5998665843992 112.24832433662483 -0.9999993190465769
    vertex -117.5998665843992 111.21304815621474 -0.999999319046584
    vertex -117.53171823697733 111.73068624641976 -0.9999993190465798
  endloop
endfacet
facet normal -1.6078792162688712e-14 -1.0879514199453117e-14 1.0
  outer loop
    vertex -117.5998665843992 111.21304815621474 -0.999999319046584
    vertex -117.5998665843992 112.24832433662483 -0.9999993190465769
    vertex -117.79966742940844 112.73068624641978 -0.9999993190465699
  endloop
endfacet
facet normal -1.6078792162688712e-14 -1.0879514199453117e-14 1.0
  outer loop
    vertex -117.5998665843992 111.21304815621474 -0.999999319046584
    vertex -117.79966742940844 112.73068624641978 -0.9999993190465699
    vertex -117.79966742940844 110.73068624641976 -0.9999993190465952
  endloop
endfacet
facet normal -1.6078792162688712e-14 -1.0879514199453117e-14 1.0
  outer loop
    vertex -117.79966742940844 110.73068624641976 -0.9999993190465952
    vertex -117.79966742940844 112.73068624641978 -0.9999993190465699
    vertex -118.11750467460425 113.14489980879289 -0.9999993190465712
  endloop
endfacet
facet normal -1.6078792162688712e-14 -1.0879514199453117e-14 1.0
  outer loop
    vertex -117.79966742940844 110.73068624641976 -0.9999993190465952
    vertex -118.11750467460425 113.14489980879289 -0.9999993190465712
    vertex -118.11750467460402 110.31647268404666 -0.9999993190466023
  endloop
endfacet
facet normal -1.6078792162688712e-14 -1.0879514199453117e-14 1.0
  outer loop
    vertex -118.11750467460402 110.31647268404666 -0.9999993190466023
    vertex -118.11750467460425 113.14489980879289 -0.9999993190465712
    vertex -118.53171823697711 109.9986354388509 -0.9999993190466192
  endloop
endfacet
facet normal -1.6078792162688712e-14 -1.0879514199453117e-14 1.0
  outer loop
    vertex -118.53171823697711 109.9986354388509 -0.9999993190466192
    vertex -118.11750467460425 113.14489980879289 -0.9999993190465712
    vertex -118.53171823697734 113.46273705398865 -0.9999993190465741
  endloop
endfacet
facet normal -1.6078792162688712e-14 -1.0879514199453117e-14 1.0
  outer loop
    vertex -118.53171823697711 109.9986354388509 -0.9999993190466192
    vertex -118.53171823697734 113.46273705398865 -0.9999993190465741
    vertex -119.01408014677227 109.79883459384162 -0.9999993190466319
  endloop
endfacet
facet normal -1.6078792162688712e-14 -1.0879514199453117e-14 1.0
  outer loop
    vertex -119.01408014677227 109.79883459384162 -0.9999993190466319
    vertex -118.53171823697734 113.46273705398865 -0.9999993190465741
    vertex -119.01408014677209 113.66253789899791 -0.9999993190465712
  endloop
endfacet
facet normal -1.6078792162688712e-14 -1.0879514199453117e-14 1.0
  outer loop
    vertex -119.01408014677227 109.79883459384162 -0.9999993190466319
    vertex -119.01408014677209 113.66253789899791 -0.9999993190465712
    vertex -119.53171823697714 113.73068624641978 -0.9999993190465939
  endloop
endfacet
facet normal -1.6078792162688712e-14 -1.0879514199453117e-14 1.0
  outer loop
    vertex -119.01408014677227 109.79883459384162 -0.9999993190466319
    vertex -119.53171823697714 113.73068624641978 -0.9999993190465939
    vertex -119.53171823697731 109.73068624641976 -0.9999993190466319
  endloop
endfacet
facet normal -1.6078792162688712e-14 -1.0879514199453117e-14 1.0
  outer loop
    vertex -119.53171823697731 109.73068624641976 -0.9999993190466319
    vertex -119.53171823697714 113.73068624641978 -0.9999993190465939
    vertex -120.04935632718218 113.66253789899791 -0.9999993190465882
  endloop
endfacet
facet normal -1.6078792162688712e-14 -1.0879514199453117e-14 1.0
  outer loop
    vertex -119.53171823697731 109.73068624641976 -0.9999993190466319
    vertex -120.04935632718218 113.66253789899791 -0.9999993190465882
    vertex -120.04935632718237 109.79883459384162 -0.9999993190466488
  endloop
endfacet
facet normal -1.6078792162688712e-14 -1.0879514199453117e-14 1.0
  outer loop
    vertex -120.04935632718237 109.79883459384162 -0.9999993190466488
    vertex -120.04935632718218 113.66253789899791 -0.9999993190465882
    vertex -120.53171823697734 113.46273705398865 -0.9999993190466065
  endloop
endfacet
facet normal -1.6078792162688712e-14 -1.0879514199453117e-14 1.0
  outer loop
    vertex -120.04935632718237 109.79883459384162 -0.9999993190466488
    vertex -120.53171823697734 113.46273705398865 -0.9999993190466065
    vertex -120.53171823697711 109.99863543885087 -0.9999993190466474
  endloop
endfacet
facet normal -1.6078792162688712e-14 -1.0879514199453117e-14 1.0
  outer loop
    vertex -120.53171823697711 109.99863543885087 -0.9999993190466474
    vertex -120.53171823697734 113.46273705398865 -0.9999993190466065
    vertex -120.94593179935022 110.31647268404666 -0.9999993190466503
  endloop
endfacet
facet normal -1.6078792162688712e-14 -1.0879514199453117e-14 1.0
  outer loop
    vertex -120.94593179935022 110.31647268404666 -0.9999993190466503
    vertex -120.53171823697734 113.46273705398865 -0.9999993190466065
    vertex -120.94593179935043 113.14489980879286 -0.9999993190466192
  endloop
endfacet
facet normal -1.6078792162688712e-14 -1.0879514199453117e-14 1.0
  outer loop
    vertex -120.94593179935022 110.31647268404666 -0.9999993190466503
    vertex -120.94593179935043 113.14489980879286 -0.9999993190466192
    vertex -121.26376904454621 110.73068624641974 -0.9999993190466503
  endloop
endfacet
facet normal -1.6078792162688712e-14 -1.0879514199453117e-14 1.0
  outer loop
    vertex -121.26376904454621 110.73068624641974 -0.9999993190466503
    vertex -120.94593179935043 113.14489980879286 -0.9999993190466192
    vertex -121.26376904454621 112.73068624641976 -0.9999993190466249
  endloop
endfacet
facet normal -1.6078792162688712e-14 -1.0879514199453117e-14 1.0
  outer loop
    vertex -121.26376904454621 110.73068624641974 -0.9999993190466503
    vertex -121.26376904454621 112.73068624641976 -0.9999993190466249
    vertex -121.46356988955546 112.2483243366248 -0.9999993190466362
  endloop
endfacet
facet normal -1.6078792162688712e-14 -1.0879514199453117e-14 1.0
  outer loop
    vertex -121.26376904454621 110.73068624641974 -0.9999993190466503
    vertex -121.46356988955546 112.2483243366248 -0.9999993190466362
    vertex -121.46356988955546 111.21304815621471 -0.9999993190466488
  endloop
endfacet
facet normal -1.6078792162688712e-14 -1.0879514199453117e-14 1.0
  outer loop
    vertex -121.46356988955546 111.21304815621471 -0.9999993190466488
    vertex -121.46356988955546 112.2483243366248 -0.9999993190466362
    vertex -121.53171823697731 111.73068624641974 -0.999999319046646
  endloop
endfacet
facet normal 0.9238795325112875 0.3826834323650877 1.9018276822922425e-14
  outer loop
    vertex -121.26376904454621 110.73068624641974 6.809533479201768e-07
    vertex -121.46356988955546 111.21304815621471 -0.9999993190466488
    vertex -121.46356988955549 111.21304815621471 6.8095334933016e-07
  endloop
endfacet
facet normal 0.9238795325112875 0.3826834323650877 1.9018276822922425e-14
  outer loop
    vertex -121.46356988955546 111.21304815621471 -0.9999993190466488
    vertex -121.26376904454621 110.73068624641974 6.809533479201768e-07
    vertex -121.26376904454621 110.73068624641974 -0.9999993190466503
  endloop
endfacet
facet normal 0.7933533402912338 0.6087614290087225 1.9379192081097358e-14
  outer loop
    vertex -120.94593179935043 110.31647268404666 6.809533479201768e-07
    vertex -121.26376904454621 110.73068624641974 -0.9999993190466503
    vertex -121.26376904454621 110.73068624641974 6.809533479201768e-07
  endloop
endfacet
facet normal 0.7933533402912338 0.6087614290087225 1.9379192081097358e-14
  outer loop
    vertex -121.26376904454621 110.73068624641974 -0.9999993190466503
    vertex -120.94593179935043 110.31647268404666 6.809533479201768e-07
    vertex -120.94593179935022 110.31647268404666 -0.9999993190466503
  endloop
endfacet
facet normal 0.6087614290087106 0.793353340291243 1.8419447424574564e-14
  outer loop
    vertex -120.94593179935043 110.31647268404666 6.809533479201768e-07
    vertex -120.53171823697711 109.99863543885087 -0.9999993190466474
    vertex -120.94593179935022 110.31647268404666 -0.9999993190466503
  endloop
endfacet
facet normal 0.6087614290087106 0.793353340291243 1.8419447424574564e-14
  outer loop
    vertex -120.53171823697711 109.99863543885087 -0.9999993190466474
    vertex -120.94593179935043 110.31647268404666 6.809533479201768e-07
    vertex -120.53171823697734 109.9986354388509 6.809533507401432e-07
  endloop
endfacet
facet normal 0.3826834323650879 0.9238795325112877 1.6204447865643224e-14
  outer loop
    vertex -120.53171823697711 109.99863543885087 -0.9999993190466474
    vertex -120.0493563271826 109.79883459384165 6.809533380502941e-07
    vertex -120.04935632718237 109.79883459384162 -0.9999993190466488
  endloop
endfacet
facet normal 0.3826834323650879 0.9238795325112877 1.6204447865643224e-14
  outer loop
    vertex -120.0493563271826 109.79883459384165 6.809533380502941e-07
    vertex -120.53171823697711 109.99863543885087 -0.9999993190466474
    vertex -120.53171823697734 109.9986354388509 6.809533507401432e-07
  endloop
endfacet
facet normal 0.13052619222004475 0.9914448613738113 1.2885141963784462e-14
  outer loop
    vertex -120.0493563271826 109.79883459384165 6.809533380502941e-07
    vertex -119.53171823697731 109.73068624641976 -0.9999993190466319
    vertex -120.04935632718237 109.79883459384162 -0.9999993190466488
  endloop
endfacet
facet normal 0.13052619222004475 0.9914448613738113 1.2885141963784462e-14
  outer loop
    vertex -119.53171823697731 109.73068624641976 -0.9999993190466319
    vertex -120.0493563271826 109.79883459384165 6.809533380502941e-07
    vertex -119.53171823697754 109.73068624641976 6.809533662499589e-07
  endloop
endfacet
facet normal -0.13052619222005743 0.9914448613738098 8.687734930797718e-15
  outer loop
    vertex -119.53171823697731 109.73068624641976 -0.9999993190466319
    vertex -119.0140801467725 109.79883459384165 6.809533662499589e-07
    vertex -119.01408014677227 109.79883459384162 -0.9999993190466319
  endloop
endfacet
facet normal -0.13052619222005743 0.9914448613738098 8.687734930797718e-15
  outer loop
    vertex -119.0140801467725 109.79883459384165 6.809533662499589e-07
    vertex -119.53171823697731 109.73068624641976 -0.9999993190466319
    vertex -119.53171823697754 109.73068624641976 6.809533662499589e-07
  endloop
endfacet
facet normal -0.38268343236509966 0.9238795325112829 3.898273119437816e-15
  outer loop
    vertex -119.0140801467725 109.79883459384165 6.809533662499589e-07
    vertex -118.53171823697711 109.9986354388509 -0.9999993190466192
    vertex -119.01408014677227 109.79883459384162 -0.9999993190466319
  endloop
endfacet
facet normal -0.38268343236509966 0.9238795325112829 3.898273119437816e-15
  outer loop
    vertex -118.53171823697711 109.9986354388509 -0.9999993190466192
    vertex -119.0140801467725 109.79883459384165 6.809533662499589e-07
    vertex -118.53171823697734 109.9986354388509 6.80953384579741e-07
  endloop
endfacet
facet normal -0.6087614290087198 0.7933533402912358 -1.1568495628105346e-15
  outer loop
    vertex -118.53171823697734 109.9986354388509 6.80953384579741e-07
    vertex -118.11750467460402 110.31647268404666 -0.9999993190466023
    vertex -118.53171823697711 109.9986354388509 -0.9999993190466192
  endloop
endfacet
facet normal -0.6087614290087198 0.7933533402912358 -1.1568495628105346e-15
  outer loop
    vertex -118.11750467460402 110.31647268404666 -0.9999993190466023
    vertex -118.53171823697734 109.9986354388509 6.80953384579741e-07
    vertex -118.11750467460425 110.31647268404669 6.80953395859607e-07
  endloop
endfacet
facet normal -0.7933533402912419 0.6087614290087121 -6.133134859138117e-15
  outer loop
    vertex -117.79966742940844 110.73068624641976 -0.9999993190465952
    vertex -118.11750467460425 110.31647268404669 6.80953395859607e-07
    vertex -117.79966742940847 110.7306862464198 6.809534085494562e-07
  endloop
endfacet
facet normal -0.7933533402912419 0.6087614290087121 -6.133134859138117e-15
  outer loop
    vertex -118.11750467460425 110.31647268404669 6.80953395859607e-07
    vertex -117.79966742940844 110.73068624641976 -0.9999993190465952
    vertex -118.11750467460402 110.31647268404666 -0.9999993190466023
  endloop
endfacet
facet normal -0.9238795325112922 0.3826834323650766 -1.0691457150299774e-14
  outer loop
    vertex -117.5998665843992 111.21304815621474 -0.999999319046584
    vertex -117.79966742940847 110.7306862464198 6.809534085494562e-07
    vertex -117.59986658439922 111.21304815621474 6.809534141893891e-07
  endloop
endfacet
facet normal -0.9238795325112922 0.3826834323650766 -1.0691457150299774e-14
  outer loop
    vertex -117.79966742940847 110.7306862464198 6.809534085494562e-07
    vertex -117.5998665843992 111.21304815621474 -0.999999319046584
    vertex -117.79966742940844 110.73068624641976 -0.9999993190465952
  endloop
endfacet
facet normal -0.9914448613738113 0.13052619222004594 -1.4521174305136697e-14
  outer loop
    vertex -117.53171823697733 111.73068624641976 -0.9999993190465798
    vertex -117.59986658439922 111.21304815621474 6.809534141893891e-07
    vertex -117.53171823697734 111.73068624641978 6.809534240592718e-07
  endloop
endfacet
facet normal -0.9914448613738113 0.13052619222004594 -1.4521174305136697e-14
  outer loop
    vertex -117.59986658439922 111.21304815621474 6.809534141893891e-07
    vertex -117.53171823697733 111.73068624641976 -0.9999993190465798
    vertex -117.5998665843992 111.21304815621474 -0.999999319046584
  endloop
endfacet
facet normal -0.9914448613738097 -0.1305261922200575 -1.7361297428453873e-14
  outer loop
    vertex -117.5998665843992 112.24832433662483 -0.9999993190465769
    vertex -117.53171823697734 111.73068624641978 6.809534240592718e-07
    vertex -117.59986658439922 112.24832433662483 6.809534212393053e-07
  endloop
endfacet
facet normal -0.9914448613738097 -0.1305261922200575 -1.7361297428453873e-14
  outer loop
    vertex -117.53171823697734 111.73068624641978 6.809534240592718e-07
    vertex -117.5998665843992 112.24832433662483 -0.9999993190465769
    vertex -117.53171823697733 111.73068624641976 -0.9999993190465798
  endloop
endfacet
facet normal -0.9238795325112876 -0.38268343236508817 -1.901827682292243e-14
  outer loop
    vertex -117.5998665843992 112.24832433662483 -0.9999993190465769
    vertex -117.7996674294085 112.73068624641978 6.809534282892215e-07
    vertex -117.79966742940844 112.73068624641978 -0.9999993190465699
  endloop
endfacet
facet normal -0.9238795325112876 -0.38268343236508817 -1.901827682292243e-14
  outer loop
    vertex -117.7996674294085 112.73068624641978 6.809534282892215e-07
    vertex -117.5998665843992 112.24832433662483 -0.9999993190465769
    vertex -117.59986658439922 112.24832433662483 6.809534212393053e-07
  endloop
endfacet
facet normal -0.7933533402912338 -0.6087614290087225 -1.9379192081097358e-14
  outer loop
    vertex -118.11750467460425 113.14489980879289 -0.9999993190465712
    vertex -117.7996674294085 112.73068624641978 6.809534282892215e-07
    vertex -118.11750467460446 113.14489980879289 6.809534268792383e-07
  endloop
endfacet
facet normal -0.7933533402912338 -0.6087614290087225 -1.9379192081097358e-14
  outer loop
    vertex -117.7996674294085 112.73068624641978 6.809534282892215e-07
    vertex -118.11750467460425 113.14489980879289 -0.9999993190465712
    vertex -117.79966742940844 112.73068624641978 -0.9999993190465699
  endloop
endfacet
facet normal -0.6087614290087106 -0.793353340291243 -1.8419447424574564e-14
  outer loop
    vertex -118.11750467460446 113.14489980879289 6.809534268792383e-07
    vertex -118.53171823697734 113.46273705398865 -0.9999993190465741
    vertex -118.11750467460425 113.14489980879289 -0.9999993190465712
  endloop
endfacet
facet normal -0.6087614290087106 -0.793353340291243 -1.8419447424574564e-14
  outer loop
    vertex -118.53171823697734 113.46273705398865 -0.9999993190465741
    vertex -118.11750467460446 113.14489980879289 6.809534268792383e-07
    vertex -118.53171823697757 113.46273705398865 6.809534240592718e-07
  endloop
endfacet
facet normal -0.3826834323650879 -0.9238795325112877 -1.6204447865643224e-14
  outer loop
    vertex -118.53171823697757 113.46273705398865 6.809534240592718e-07
    vertex -119.01408014677209 113.66253789899791 -0.9999993190465712
    vertex -118.53171823697734 113.46273705398865 -0.9999993190465741
  endloop
endfacet
facet normal -0.3826834323650879 -0.9238795325112877 -1.6204447865643224e-14
  outer loop
    vertex -119.01408014677209 113.66253789899791 -0.9999993190465712
    vertex -118.53171823697757 113.46273705398865 6.809534240592718e-07
    vertex -119.01408014677232 113.66253789899791 6.809534381591042e-07
  endloop
endfacet
facet normal -0.13052619222004408 -0.9914448613738115 -1.288514196378444e-14
  outer loop
    vertex -119.01408014677209 113.66253789899791 -0.9999993190465712
    vertex -119.53171823697737 113.73068624641978 6.809534099594394e-07
    vertex -119.53171823697714 113.73068624641978 -0.9999993190465939
  endloop
endfacet
facet normal -0.13052619222004408 -0.9914448613738115 -1.288514196378444e-14
  outer loop
    vertex -119.53171823697737 113.73068624641978 6.809534099594394e-07
    vertex -119.01408014677209 113.66253789899791 -0.9999993190465712
    vertex -119.01408014677232 113.66253789899791 6.809534381591042e-07
  endloop
endfacet
facet normal 0.13052619222005676 -0.9914448613738097 -8.687734930797727e-15
  outer loop
    vertex -119.53171823697737 113.73068624641978 6.809534099594394e-07
    vertex -120.04935632718218 113.66253789899791 -0.9999993190465882
    vertex -119.53171823697714 113.73068624641978 -0.9999993190465939
  endloop
endfacet
facet normal 0.13052619222005676 -0.9914448613738097 -8.687734930797727e-15
  outer loop
    vertex -120.04935632718218 113.66253789899791 -0.9999993190465882
    vertex -119.53171823697737 113.73068624641978 6.809534099594394e-07
    vertex -120.04935632718241 113.66253789899791 6.809534212393053e-07
  endloop
endfacet
facet normal 0.38268343236509966 -0.9238795325112829 -3.898273119437816e-15
  outer loop
    vertex -120.04935632718218 113.66253789899791 -0.9999993190465882
    vertex -120.53171823697757 113.46273705398865 6.809533916296572e-07
    vertex -120.53171823697734 113.46273705398865 -0.9999993190466065
  endloop
endfacet
facet normal 0.38268343236509966 -0.9238795325112829 -3.898273119437816e-15
  outer loop
    vertex -120.53171823697757 113.46273705398865 6.809533916296572e-07
    vertex -120.04935632718218 113.66253789899791 -0.9999993190465882
    vertex -120.04935632718241 113.66253789899791 6.809534212393053e-07
  endloop
endfacet
facet normal 0.6087614290087202 -0.7933533402912355 1.1568495628105465e-15
  outer loop
    vertex -120.53171823697734 113.46273705398865 -0.9999993190466065
    vertex -120.94593179935066 113.14489980879286 6.80953384579741e-07
    vertex -120.94593179935043 113.14489980879286 -0.9999993190466192
  endloop
endfacet
facet normal 0.6087614290087202 -0.7933533402912355 1.1568495628105465e-15
  outer loop
    vertex -120.94593179935066 113.14489980879286 6.80953384579741e-07
    vertex -120.53171823697734 113.46273705398865 -0.9999993190466065
    vertex -120.53171823697757 113.46273705398865 6.809533916296572e-07
  endloop
endfacet
facet normal 0.7933533402912414 -0.6087614290087126 6.133134859138074e-15
  outer loop
    vertex -121.26376904454625 112.73068624641976 6.809533732998752e-07
    vertex -120.94593179935043 113.14489980879286 -0.9999993190466192
    vertex -120.94593179935066 113.14489980879286 6.80953384579741e-07
  endloop
endfacet
facet normal 0.7933533402912414 -0.6087614290087126 6.133134859138074e-15
  outer loop
    vertex -120.94593179935043 113.14489980879286 -0.9999993190466192
    vertex -121.26376904454625 112.73068624641976 6.809533732998752e-07
    vertex -121.26376904454621 112.73068624641976 -0.9999993190466249
  endloop
endfacet
facet normal 0.9238795325112922 -0.3826834323650766 1.0691457150299774e-14
  outer loop
    vertex -121.46356988955549 112.2483243366248 6.809533620200092e-07
    vertex -121.26376904454621 112.73068624641976 -0.9999993190466249
    vertex -121.26376904454625 112.73068624641976 6.809533732998752e-07
  endloop
endfacet
facet normal 0.9238795325112922 -0.3826834323650766 1.0691457150299774e-14
  outer loop
    vertex -121.26376904454621 112.73068624641976 -0.9999993190466249
    vertex -121.46356988955549 112.2483243366248 6.809533620200092e-07
    vertex -121.46356988955546 112.2483243366248 -0.9999993190466362
  endloop
endfacet
facet normal 0.9914448613738113 -0.1305261922200458 1.45211743051367e-14
  outer loop
    vertex -121.53171823697734 111.73068624641976 6.809533408702606e-07
    vertex -121.46356988955546 112.2483243366248 -0.9999993190466362
    vertex -121.46356988955549 112.2483243366248 6.809533620200092e-07
  endloop
endfacet
facet normal 0.9914448613738113 -0.1305261922200458 1.45211743051367e-14
  outer loop
    vertex -121.46356988955546 112.2483243366248 -0.9999993190466362
    vertex -121.53171823697734 111.73068624641976 6.809533408702606e-07
    vertex -121.53171823697731 111.73068624641974 -0.999999319046646
  endloop
endfacet
facet normal 0.9914448613738096 0.1305261922200577 1.736129742845387e-14
  outer loop
    vertex -121.46356988955549 111.21304815621471 6.8095334933016e-07
    vertex -121.53171823697731 111.73068624641974 -0.999999319046646
    vertex -121.53171823697734 111.73068624641976 6.809533408702606e-07
  endloop
endfacet
facet normal 0.9914448613738096 0.1305261922200577 1.736129742845387e-14
  outer loop
    vertex -121.53171823697731 111.73068624641974 -0.999999319046646
    vertex -121.46356988955549 111.21304815621471 6.8095334933016e-07
    vertex -121.46356988955546 111.21304815621471 -0.9999993190466488
  endloop
endfacet
facet normal 7.234041523715383e-15 -3.4122974418228283e-16 -1.0
  outer loop
    vertex -127.23318957701646 106.42511119992635 -9.99999931904626
    vertex -126.67618985465921 111.7306862464197 -9.999999319046207
    vertex -111.54312308207183 105.05240825165087 -9.999999319046132
  endloop
endfacet
facet normal 7.234041523715383e-15 -3.4122974418228283e-16 -1.0
  outer loop
    vertex -111.54312308207183 105.05240825165087 -9.999999319046132
    vertex -111.5431230820718 118.40896424118836 -9.999999319046205
    vertex -110.94748154416713 111.73068624641984 -9.999999319046143
  endloop
endfacet
facet normal 7.234041523715383e-15 -3.4122974418228283e-16 -1.0
  outer loop
    vertex -111.5431230820718 118.40896424118836 -9.999999319046205
    vertex -111.54312308207183 105.05240825165087 -9.999999319046132
    vertex -127.23318957701697 117.03626129291264 -9.999999319046243
  endloop
endfacet
facet normal 7.234041523715383e-15 -3.4122974418228283e-16 -1.0
  outer loop
    vertex -127.23318957701697 117.03626129291264 -9.999999319046243
    vertex -111.54312308207183 105.05240825165087 -9.999999319046132
    vertex -126.67618985465921 111.7306862464197 -9.999999319046207
  endloop
endfacet
facet normal -0.9945343341332012 0.10441004851177002 -3.2176860643378045e-15
  outer loop
    vertex -126.67618985465921 111.7306862464197 -9.999999319046207
    vertex -127.23318957701663 106.42511119992632 -0.9999993190464458
    vertex -126.67618985465914 111.73068624641972 -0.9999993190463866
  endloop
endfacet
facet normal -0.9945343341332012 0.10441004851177002 -3.2176860643378045e-15
  outer loop
    vertex -127.23318957701663 106.42511119992632 -0.9999993190464458
    vertex -126.67618985465921 111.7306862464197 -9.999999319046207
    vertex -127.23318957701646 106.42511119992635 -9.99999931904626
  endloop
endfacet
facet normal -0.994534334133195 -0.10441004851182913 5.901522270880048e-15
  outer loop
    vertex -127.23318957701697 117.03626129291264 -9.999999319046243
    vertex -126.67618985465914 111.73068624641972 -0.9999993190463866
    vertex -127.23318957701697 117.03626129291267 -0.9999993190464063
  endloop
endfacet
facet normal -0.994534334133195 -0.10441004851182913 5.901522270880048e-15
  outer loop
    vertex -126.67618985465914 111.73068624641972 -0.9999993190463866
    vertex -127.23318957701697 117.03626129291264 -9.999999319046243
    vertex -126.67618985465921 111.7306862464197 -9.999999319046207
  endloop
endfacet
facet normal 0.9960633398158589 0.08864422974962795 0.00015364560617177014
  outer loop
    vertex -110.95019199569342 111.73167679391463 -1.000000050766607
    vertex -111.5431230820718 118.40896424118836 -9.999999319046205
    vertex -111.54312308207177 118.40896424118843 -1.0000000507665674
  endloop
endfacet
facet normal 0.9960633398158589 0.08864422974962795 0.00015364560617177014
  outer loop
    vertex -111.5431230820718 118.40896424118836 -9.999999319046205
    vertex -110.95019199569342 111.73167679391463 -1.000000050766607
    vertex -110.94748154416713 111.73068624641984 -9.999999319046143
  endloop
endfacet
facet normal 0.996099542452752 0.08822344450575645 0.0015249147379807113
  outer loop
    vertex -110.95312232884338 111.73019274170728 6.809536806762217e-07
    vertex -111.54312308207177 118.40896424118843 -1.0000000507665674
    vertex -111.54312308207193 118.40896424118843 6.809536637564228e-07
  endloop
endfacet
facet normal 0.996099542452752 0.08822344450575645 0.0015249147379807113
  outer loop
    vertex -111.54312308207177 118.40896424118843 -1.0000000507665674
    vertex -110.95312232884338 111.73019274170728 6.809536806762217e-07
    vertex -110.95019199569342 111.73167679391463 -1.000000050766607
  endloop
endfacet
facet normal 3.1419690601215654e-08 3.358733263656502e-08 0.9999999999999991
  outer loop
    vertex -111.54312308207177 118.40896424118843 -1.0000000507665674
    vertex -111.54312308207193 105.05240825165095 -0.999999319046285
    vertex -110.95019199569342 111.73167679391463 -1.000000050766607
  endloop
endfacet
facet normal 3.1419690601215654e-08 3.358733263656502e-08 0.9999999999999991
  outer loop
    vertex -111.54312308207193 105.05240825165095 -0.999999319046285
    vertex -111.54312308207177 118.40896424118843 -1.0000000507665674
    vertex -118.11750467460425 113.14489980879289 -0.9999993190465712
  endloop
endfacet
facet normal 3.1419690601215654e-08 3.358733263656502e-08 0.9999999999999991
  outer loop
    vertex -118.11750467460425 113.14489980879289 -0.9999993190465712
    vertex -111.54312308207177 118.40896424118843 -1.0000000507665674
    vertex -118.53171823697734 113.46273705398865 -0.9999993190465741
  endloop
endfacet
facet normal 3.1419690601215654e-08 3.358733263656502e-08 0.9999999999999991
  outer loop
    vertex -118.53171823697734 113.46273705398865 -0.9999993190465741
    vertex -111.54312308207177 118.40896424118843 -1.0000000507665674
    vertex -119.01408014677209 113.66253789899791 -0.9999993190465712
  endloop
endfacet
facet normal 3.1419690601215654e-08 3.358733263656502e-08 0.9999999999999991
  outer loop
    vertex -119.01408014677209 113.66253789899791 -0.9999993190465712
    vertex -111.54312308207177 118.40896424118843 -1.0000000507665674
    vertex -127.23318957701697 117.03626129291267 -0.9999993190464063
  endloop
endfacet
facet normal 3.1419690601215654e-08 3.358733263656502e-08 0.9999999999999991
  outer loop
    vertex -111.54312308207193 105.05240825165095 -0.999999319046285
    vertex -118.11750467460425 113.14489980879289 -0.9999993190465712
    vertex -117.79966742940844 112.73068624641978 -0.9999993190465699
  endloop
endfacet
facet normal 3.1419690601215654e-08 3.358733263656502e-08 0.9999999999999991
  outer loop
    vertex -111.54312308207193 105.05240825165095 -0.999999319046285
    vertex -117.79966742940844 112.73068624641978 -0.9999993190465699
    vertex -117.5998665843992 112.24832433662483 -0.9999993190465769
  endloop
endfacet
facet normal 3.1419690601215654e-08 3.358733263656502e-08 0.9999999999999991
  outer loop
    vertex -111.54312308207193 105.05240825165095 -0.999999319046285
    vertex -117.5998665843992 112.24832433662483 -0.9999993190465769
    vertex -117.53171823697733 111.73068624641976 -0.9999993190465798
  endloop
endfacet
facet normal 3.1419690601215654e-08 3.358733263656502e-08 0.9999999999999991
  outer loop
    vertex -119.01408014677209 113.66253789899791 -0.9999993190465712
    vertex -127.23318957701697 117.03626129291267 -0.9999993190464063
    vertex -119.53171823697714 113.73068624641978 -0.9999993190465939
  endloop
endfacet
facet normal 3.1419690601215654e-08 3.358733263656502e-08 0.9999999999999991
  outer loop
    vertex -119.53171823697714 113.73068624641978 -0.9999993190465939
    vertex -127.23318957701697 117.03626129291267 -0.9999993190464063
    vertex -120.04935632718218 113.66253789899791 -0.9999993190465882
  endloop
endfacet
facet normal 3.1419690601215654e-08 3.358733263656502e-08 0.9999999999999991
  outer loop
    vertex -120.04935632718218 113.66253789899791 -0.9999993190465882
    vertex -127.23318957701697 117.03626129291267 -0.9999993190464063
    vertex -120.53171823697734 113.46273705398865 -0.9999993190466065
  endloop
endfacet
facet normal 3.1419690601215654e-08 3.358733263656502e-08 0.9999999999999991
  outer loop
    vertex -120.53171823697734 113.46273705398865 -0.9999993190466065
    vertex -127.23318957701697 117.03626129291267 -0.9999993190464063
    vertex -120.94593179935043 113.14489980879286 -0.9999993190466192
  endloop
endfacet
facet normal 3.1419690601215654e-08 3.358733263656502e-08 0.9999999999999991
  outer loop
    vertex -120.94593179935043 113.14489980879286 -0.9999993190466192
    vertex -127.23318957701697 117.03626129291267 -0.9999993190464063
    vertex -121.26376904454621 112.73068624641976 -0.9999993190466249
  endloop
endfacet
facet normal 3.1419690601215654e-08 3.358733263656502e-08 0.9999999999999991
  outer loop
    vertex -121.26376904454621 112.73068624641976 -0.9999993190466249
    vertex -127.23318957701697 117.03626129291267 -0.9999993190464063
    vertex -121.46356988955546 112.2483243366248 -0.9999993190466362
  endloop
endfacet
facet normal 3.1419690601215654e-08 3.358733263656502e-08 0.9999999999999991
  outer loop
    vertex -121.46356988955546 112.2483243366248 -0.9999993190466362
    vertex -127.23318957701697 117.03626129291267 -0.9999993190464063
    vertex -121.53171823697731 111.73068624641974 -0.999999319046646
  endloop
endfacet
facet normal 3.1419690601215654e-08 3.358733263656502e-08 0.9999999999999991
  outer loop
    vertex -121.53171823697731 111.73068624641974 -0.999999319046646
    vertex -127.23318957701697 117.03626129291267 -0.9999993190464063
    vertex -126.67618985465914 111.73068624641972 -0.9999993190463866
  endloop
endfacet
facet normal 3.1419690601215654e-08 3.358733263656502e-08 0.9999999999999991
  outer loop
    vertex -111.54312308207193 105.05240825165095 -0.999999319046285
    vertex -119.01408014677227 109.79883459384162 -0.9999993190466319
    vertex -127.23318957701663 106.42511119992632 -0.9999993190464458
  endloop
endfacet
facet normal 3.1419690601215654e-08 3.358733263656502e-08 0.9999999999999991
  outer loop
    vertex -119.01408014677227 109.79883459384162 -0.9999993190466319
    vertex -111.54312308207193 105.05240825165095 -0.999999319046285
    vertex -118.53171823697711 109.9986354388509 -0.9999993190466192
  endloop
endfacet
facet normal 3.1419690601215654e-08 3.358733263656502e-08 0.9999999999999991
  outer loop
    vertex -118.53171823697711 109.9986354388509 -0.9999993190466192
    vertex -111.54312308207193 105.05240825165095 -0.999999319046285
    vertex -118.11750467460402 110.31647268404666 -0.9999993190466023
  endloop
endfacet
facet normal 3.1419690601215654e-08 3.358733263656502e-08 0.9999999999999991
  outer loop
    vertex -118.11750467460402 110.31647268404666 -0.9999993190466023
    vertex -111.54312308207193 105.05240825165095 -0.999999319046285
    vertex -117.79966742940844 110.73068624641976 -0.9999993190465952
  endloop
endfacet
facet normal 3.1419690601215654e-08 3.358733263656502e-08 0.9999999999999991
  outer loop
    vertex -117.79966742940844 110.73068624641976 -0.9999993190465952
    vertex -111.54312308207193 105.05240825165095 -0.999999319046285
    vertex -117.5998665843992 111.21304815621474 -0.999999319046584
  endloop
endfacet
facet normal 3.1419690601215654e-08 3.358733263656502e-08 0.9999999999999991
  outer loop
    vertex -117.5998665843992 111.21304815621474 -0.999999319046584
    vertex -111.54312308207193 105.05240825165095 -0.999999319046285
    vertex -117.53171823697733 111.73068624641976 -0.9999993190465798
  endloop
endfacet
facet normal 3.1419690601215654e-08 3.358733263656502e-08 0.9999999999999991
  outer loop
    vertex -127.23318957701663 106.42511119992632 -0.9999993190464458
    vertex -119.01408014677227 109.79883459384162 -0.9999993190466319
    vertex -119.53171823697731 109.73068624641976 -0.9999993190466319
  endloop
endfacet
facet normal 3.1419690601215654e-08 3.358733263656502e-08 0.9999999999999991
  outer loop
    vertex -127.23318957701663 106.42511119992632 -0.9999993190464458
    vertex -119.53171823697731 109.73068624641976 -0.9999993190466319
    vertex -120.04935632718237 109.79883459384162 -0.9999993190466488
  endloop
endfacet
facet normal 3.1419690601215654e-08 3.358733263656502e-08 0.9999999999999991
  outer loop
    vertex -127.23318957701663 106.42511119992632 -0.9999993190464458
    vertex -120.04935632718237 109.79883459384162 -0.9999993190466488
    vertex -120.53171823697711 109.99863543885087 -0.9999993190466474
  endloop
endfacet
facet normal 3.1419690601215654e-08 3.358733263656502e-08 0.9999999999999991
  outer loop
    vertex -127.23318957701663 106.42511119992632 -0.9999993190464458
    vertex -120.53171823697711 109.99863543885087 -0.9999993190466474
    vertex -120.94593179935022 110.31647268404666 -0.9999993190466503
  endloop
endfacet
facet normal 3.1419690601215654e-08 3.358733263656502e-08 0.9999999999999991
  outer loop
    vertex -127.23318957701663 106.42511119992632 -0.9999993190464458
    vertex -120.94593179935022 110.31647268404666 -0.9999993190466503
    vertex -121.26376904454621 110.73068624641974 -0.9999993190466503
  endloop
endfacet
facet normal 3.1419690601215654e-08 3.358733263656502e-08 0.9999999999999991
  outer loop
    vertex -127.23318957701663 106.42511119992632 -0.9999993190464458
    vertex -121.26376904454621 110.73068624641974 -0.9999993190466503
    vertex -121.46356988955546 111.21304815621471 -0.9999993190466488
  endloop
endfacet
facet normal 3.1419690601215654e-08 3.358733263656502e-08 0.9999999999999991
  outer loop
    vertex -127.23318957701663 106.42511119992632 -0.9999993190464458
    vertex -121.46356988955546 111.21304815621471 -0.9999993190466488
    vertex -121.53171823697731 111.73068624641974 -0.999999319046646
  endloop
endfacet
facet normal 3.1419690601215654e-08 3.358733263656502e-08 0.9999999999999991
  outer loop
    vertex -127.23318957701663 106.42511119992632 -0.9999993190464458
    vertex -121.53171823697731 111.73068624641974 -0.999999319046646
    vertex -126.67618985465914 111.73068624641972 -0.9999993190463866
  endloop
endfacet
facet normal 0.9960645015695477 -0.08863115606349478 0.0001639751716637522
  outer loop
    vertex -111.54312308207193 105.05240825165095 -0.999999319046285
    vertex -110.94748154416713 111.73068624641984 -9.999999319046143
    vertex -110.95019199569342 111.73167679391463 -1.000000050766607
  endloop
endfacet
facet normal 0.9960645015695477 -0.08863115606349478 0.0001639751716637522
  outer loop
    vertex -110.94748154416713 111.73068624641984 -9.999999319046143
    vertex -111.54312308207193 105.05240825165095 -0.999999319046285
    vertex -111.54312308207183 105.05240825165087 -9.999999319046132
  endloop
endfacet
facet normal 0.9961003055119813 -0.08821699462627446 0.0013939935601151529
  outer loop
    vertex -110.95312232884338 111.73019274170728 6.809536806762217e-07
    vertex -111.54312308207193 105.05240825165095 -0.999999319046285
    vertex -110.95019199569342 111.73167679391463 -1.000000050766607
  endloop
endfacet
facet normal 0.9961003055119813 -0.08821699462627446 0.0013939935601151529
  outer loop
    vertex -111.54312308207193 105.05240825165095 -0.999999319046285
    vertex -110.95312232884338 111.73019274170728 6.809536806762217e-07
    vertex -111.54312308207196 105.05240825165095 6.809536285068418e-07
  endloop
endfacet
facet normal 1.0 -9.17032917399628e-09 -1.5589452232365284e-08
  outer loop
    vertex -111.54312305089279 120.10896406148247 1.2008843819133474e-06
    vertex -111.54312308207177 118.40896424118843 -1.0000000507665674
    vertex -111.54312308207183 120.10896424118816 -0.9999991153637579
  endloop
endfacet
facet normal 1.0 -9.17032917399628e-09 -1.5589452232365284e-08
  outer loop
    vertex -111.54312308207177 118.40896424118843 -1.0000000507665674
    vertex -111.54312305089279 120.10896406148247 1.2008843819133474e-06
    vertex -111.54312308207193 118.40896424118843 6.809536637564228e-07
  endloop
endfacet
facet normal -1.6583179293499624e-08 9.396285153569434e-09 -1.0
  outer loop
    vertex -129.13318957701685 103.35240825165083 -0.9999991153640653
    vertex -111.54312308207193 105.05240825165095 -0.999999319046285
    vertex -111.5431230820713 103.35240825165098 -0.9999997867478442
  endloop
endfacet
facet normal -1.6583179293499624e-08 9.396285153569434e-09 -1.0
  outer loop
    vertex -111.54312308207193 105.05240825165095 -0.999999319046285
    vertex -129.13318957701685 103.35240825165083 -0.9999991153640653
    vertex -127.23318957701663 106.42511119992632 -0.9999993190464458
  endloop
endfacet
facet normal -1.6583179293499624e-08 9.396285153569434e-09 -1.0
  outer loop
    vertex -127.23318957701663 106.42511119992632 -0.9999993190464458
    vertex -129.13318957701685 103.35240825165083 -0.9999991153640653
    vertex -127.23318957701697 117.03626129291267 -0.9999993190464063
  endloop
endfacet
facet normal -1.6583179293499624e-08 9.396285153569434e-09 -1.0
  outer loop
    vertex -127.23318957701697 117.03626129291267 -0.9999993190464063
    vertex -111.54312308207183 120.10896424118816 -0.9999991153637579
    vertex -111.54312308207177 118.40896424118843 -1.0000000507665674
  endloop
endfacet
facet normal -1.6583179293499624e-08 9.396285153569434e-09 -1.0
  outer loop
    vertex -111.54312308207183 120.10896424118816 -0.9999991153637579
    vertex -127.23318957701697 117.03626129291267 -0.9999993190464063
    vertex -129.133189577017 120.10896424118799 -0.9999991153639552
  endloop
endfacet
facet normal -1.6583179293499624e-08 9.396285153569434e-09 -1.0
  outer loop
    vertex -129.133189577017 120.10896424118799 -0.9999991153639552
    vertex -127.23318957701697 117.03626129291267 -0.9999993190464063
    vertex -129.13318957701685 103.35240825165083 -0.9999991153640653
  endloop
endfacet
facet normal -1.6583179293499624e-08 9.396285153569434e-09 -1.0
  outer loop
    vertex -127.23318957701697 117.03626129291267 -0.9999993190464063
    vertex -126.67618985465914 111.73068624641972 -0.9999993190463866
    vertex -127.23318957701663 106.42511119992632 -0.9999993190464458
  endloop
endfacet
facet normal 2.2439051758555204e-08 -3.038710967015578e-08 0.9999999999999993
  outer loop
    vertex -129.13318945963056 120.10896422450045 1.3619073613524434e-06
    vertex -111.54312308207193 118.40896424118843 6.809536637564228e-07
    vertex -111.54312305089279 120.10896406148247 1.2008843819133474e-06
  endloop
endfacet
facet normal 2.2439051758555204e-08 -3.038710967015578e-08 0.9999999999999993
  outer loop
    vertex -111.54312308207193 118.40896424118843 6.809536637564228e-07
    vertex -129.13318945963056 120.10896422450045 1.3619073613524434e-06
    vertex -118.53171823697757 113.46273705398865 6.809534240592718e-07
  endloop
endfacet
facet normal 2.2439051758555204e-08 -3.038710967015578e-08 0.9999999999999993
  outer loop
    vertex -111.54312308207193 118.40896424118843 6.809536637564228e-07
    vertex -118.53171823697757 113.46273705398865 6.809534240592718e-07
    vertex -118.11750467460446 113.14489980879289 6.809534268792383e-07
  endloop
endfacet
facet normal 2.2439051758555204e-08 -3.038710967015578e-08 0.9999999999999993
  outer loop
    vertex -111.54312308207193 118.40896424118843 6.809536637564228e-07
    vertex -118.11750467460446 113.14489980879289 6.809534268792383e-07
    vertex -111.54312308207196 105.05240825165095 6.809536285068418e-07
  endloop
endfacet
facet normal 2.2439051758555204e-08 -3.038710967015578e-08 0.9999999999999993
  outer loop
    vertex -111.54312308207196 105.05240825165095 6.809536285068418e-07
    vertex -118.11750467460446 113.14489980879289 6.809534268792383e-07
    vertex -117.7996674294085 112.73068624641978 6.809534282892215e-07
  endloop
endfacet
facet normal 2.2439051758555204e-08 -3.038710967015578e-08 0.9999999999999993
  outer loop
    vertex -111.54312308207196 105.05240825165095 6.809536285068418e-07
    vertex -117.7996674294085 112.73068624641978 6.809534282892215e-07
    vertex -111.54312308998978 103.35240807063488 2.7535228270814115e-07
  endloop
endfacet
facet normal 2.2439051758555204e-08 -3.038710967015578e-08 0.9999999999999993
  outer loop
    vertex -111.54312308998978 103.35240807063488 2.7535228270814115e-07
    vertex -117.7996674294085 112.73068624641978 6.809534282892215e-07
    vertex -117.59986658439922 112.24832433662483 6.809534212393053e-07
  endloop
endfacet
facet normal 2.2439051758555204e-08 -3.038710967015578e-08 0.9999999999999993
  outer loop
    vertex -111.54312308998978 103.35240807063488 2.7535228270814115e-07
    vertex -117.59986658439922 112.24832433662483 6.809534212393053e-07
    vertex -117.53171823697734 111.73068624641978 6.809534240592718e-07
  endloop
endfacet
facet normal 2.2439051758555204e-08 -3.038710967015578e-08 0.9999999999999993
  outer loop
    vertex -118.53171823697757 113.46273705398865 6.809534240592718e-07
    vertex -129.13318945963056 120.10896422450045 1.3619073613524434e-06
    vertex -119.01408014677232 113.66253789899791 6.809534381591042e-07
  endloop
endfacet
facet normal 2.2439051758555204e-08 -3.038710967015578e-08 0.9999999999999993
  outer loop
    vertex -119.01408014677232 113.66253789899791 6.809534381591042e-07
    vertex -129.13318945963056 120.10896422450045 1.3619073613524434e-06
    vertex -119.53171823697737 113.73068624641978 6.809534099594394e-07
  endloop
endfacet
facet normal 2.2439051758555204e-08 -3.038710967015578e-08 0.9999999999999993
  outer loop
    vertex -119.53171823697737 113.73068624641978 6.809534099594394e-07
    vertex -129.13318945963056 120.10896422450045 1.3619073613524434e-06
    vertex -120.04935632718241 113.66253789899791 6.809534212393053e-07
  endloop
endfacet
facet normal 2.2439051758555204e-08 -3.038710967015578e-08 0.9999999999999993
  outer loop
    vertex -120.04935632718241 113.66253789899791 6.809534212393053e-07
    vertex -129.13318945963056 120.10896422450045 1.3619073613524434e-06
    vertex -120.53171823697757 113.46273705398865 6.809533916296572e-07
  endloop
endfacet
facet normal 2.2439051758555204e-08 -3.038710967015578e-08 0.9999999999999993
  outer loop
    vertex -120.53171823697757 113.46273705398865 6.809533916296572e-07
    vertex -129.13318945963056 120.10896422450045 1.3619073613524434e-06
    vertex -120.94593179935066 113.14489980879286 6.80953384579741e-07
  endloop
endfacet
facet normal 2.2439051758555204e-08 -3.038710967015578e-08 0.9999999999999993
  outer loop
    vertex -120.94593179935066 113.14489980879286 6.80953384579741e-07
    vertex -129.13318945963056 120.10896422450045 1.3619073613524434e-06
    vertex -121.26376904454625 112.73068624641976 6.809533732998752e-07
  endloop
endfacet
facet normal 2.2439051758555204e-08 -3.038710967015578e-08 0.9999999999999993
  outer loop
    vertex -121.26376904454625 112.73068624641976 6.809533732998752e-07
    vertex -129.13318945963056 120.10896422450045 1.3619073613524434e-06
    vertex -121.46356988955549 112.2483243366248 6.809533620200092e-07
  endloop
endfacet
facet normal 2.2439051758555204e-08 -3.038710967015578e-08 0.9999999999999993
  outer loop
    vertex -121.46356988955549 112.2483243366248 6.809533620200092e-07
    vertex -129.13318945963056 120.10896422450045 1.3619073613524434e-06
    vertex -121.53171823697734 111.73068624641976 6.809533408702606e-07
  endloop
endfacet
facet normal 2.2439051758555204e-08 -3.038710967015578e-08 0.9999999999999993
  outer loop
    vertex -121.53171823697734 111.73068624641976 6.809533408702606e-07
    vertex -129.13318945963056 120.10896422450045 1.3619073613524434e-06
    vertex -129.1331894596304 103.35240823496328 1.3619072626536165e-06
  endloop
endfacet
facet normal 2.2439051758555204e-08 -3.038710967015578e-08 0.9999999999999993
  outer loop
    vertex -111.54312308998978 103.35240807063488 2.7535228270814115e-07
    vertex -118.53171823697734 109.9986354388509 6.80953384579741e-07
    vertex -129.1331894596304 103.35240823496328 1.3619072626536165e-06
  endloop
endfacet
facet normal 2.2439051758555204e-08 -3.038710967015578e-08 0.9999999999999993
  outer loop
    vertex -118.53171823697734 109.9986354388509 6.80953384579741e-07
    vertex -111.54312308998978 103.35240807063488 2.7535228270814115e-07
    vertex -118.11750467460425 110.31647268404669 6.80953395859607e-07
  endloop
endfacet
facet normal 2.2439051758555204e-08 -3.038710967015578e-08 0.9999999999999993
  outer loop
    vertex -118.11750467460425 110.31647268404669 6.80953395859607e-07
    vertex -111.54312308998978 103.35240807063488 2.7535228270814115e-07
    vertex -117.79966742940847 110.7306862464198 6.809534085494562e-07
  endloop
endfacet
facet normal 2.2439051758555204e-08 -3.038710967015578e-08 0.9999999999999993
  outer loop
    vertex -117.79966742940847 110.7306862464198 6.809534085494562e-07
    vertex -111.54312308998978 103.35240807063488 2.7535228270814115e-07
    vertex -117.59986658439922 111.21304815621474 6.809534141893891e-07
  endloop
endfacet
facet normal 2.2439051758555204e-08 -3.038710967015578e-08 0.9999999999999993
  outer loop
    vertex -117.59986658439922 111.21304815621474 6.809534141893891e-07
    vertex -111.54312308998978 103.35240807063488 2.7535228270814115e-07
    vertex -117.53171823697734 111.73068624641978 6.809534240592718e-07
  endloop
endfacet
facet normal 2.2439051758555204e-08 -3.038710967015578e-08 0.9999999999999993
  outer loop
    vertex -129.1331894596304 103.35240823496328 1.3619072626536165e-06
    vertex -118.53171823697734 109.9986354388509 6.80953384579741e-07
    vertex -119.0140801467725 109.79883459384165 6.809533662499589e-07
  endloop
endfacet
facet normal 2.2439051758555204e-08 -3.038710967015578e-08 0.9999999999999993
  outer loop
    vertex -129.1331894596304 103.35240823496328 1.3619072626536165e-06
    vertex -119.0140801467725 109.79883459384165 6.809533662499589e-07
    vertex -119.53171823697754 109.73068624641976 6.809533662499589e-07
  endloop
endfacet
facet normal 2.2439051758555204e-08 -3.038710967015578e-08 0.9999999999999993
  outer loop
    vertex -129.1331894596304 103.35240823496328 1.3619072626536165e-06
    vertex -119.53171823697754 109.73068624641976 6.809533662499589e-07
    vertex -120.0493563271826 109.79883459384165 6.809533380502941e-07
  endloop
endfacet
facet normal 2.2439051758555204e-08 -3.038710967015578e-08 0.9999999999999993
  outer loop
    vertex -129.1331894596304 103.35240823496328 1.3619072626536165e-06
    vertex -120.0493563271826 109.79883459384165 6.809533380502941e-07
    vertex -120.53171823697734 109.9986354388509 6.809533507401432e-07
  endloop
endfacet
facet normal 2.2439051758555204e-08 -3.038710967015578e-08 0.9999999999999993
  outer loop
    vertex -129.1331894596304 103.35240823496328 1.3619072626536165e-06
    vertex -120.53171823697734 109.9986354388509 6.809533507401432e-07
    vertex -120.94593179935043 110.31647268404666 6.809533479201768e-07
  endloop
endfacet
facet normal 2.2439051758555204e-08 -3.038710967015578e-08 0.9999999999999993
  outer loop
    vertex -129.1331894596304 103.35240823496328 1.3619072626536165e-06
    vertex -120.94593179935043 110.31647268404666 6.809533479201768e-07
    vertex -121.26376904454621 110.73068624641974 6.809533479201768e-07
  endloop
endfacet
facet normal 2.2439051758555204e-08 -3.038710967015578e-08 0.9999999999999993
  outer loop
    vertex -129.1331894596304 103.35240823496328 1.3619072626536165e-06
    vertex -121.26376904454621 110.73068624641974 6.809533479201768e-07
    vertex -121.46356988955549 111.21304815621471 6.8095334933016e-07
  endloop
endfacet
facet normal 2.2439051758555204e-08 -3.038710967015578e-08 0.9999999999999993
  outer loop
    vertex -129.1331894596304 103.35240823496328 1.3619072626536165e-06
    vertex -121.46356988955549 111.21304815621471 6.8095334933016e-07
    vertex -121.53171823697734 111.73068624641976 6.809533408702606e-07
  endloop
endfacet
facet normal 2.2439051758555204e-08 -3.038710967015578e-08 0.9999999999999993
  outer loop
    vertex -111.54312308207196 105.05240825165095 6.809536285068418e-07
    vertex -110.95312232884338 111.73019274170728 6.809536806762217e-07
    vertex -111.54312308207193 118.40896424118843 6.809536637564228e-07
  endloop
endfacet
facet normal 1.0 -2.3285872656214656e-09 3.959232702556725e-09
  outer loop
    vertex -111.54312308998978 103.35240807063488 2.7535228270814115e-07
    vertex -111.54312308207193 105.05240825165095 -0.999999319046285
    vertex -111.54312308207196 105.05240825165095 6.809536285068418e-07
  endloop
endfacet
facet normal 1.0 -2.3285872656214656e-09 3.959232702556725e-09
  outer loop
    vertex -111.54312308207193 105.05240825165095 -0.999999319046285
    vertex -111.54312308998978 103.35240807063488 2.7535228270814115e-07
    vertex -111.5431230820713 103.35240825165098 -0.9999997867478442
  endloop
endfacet
facet normal -2.863713076945834e-09 -0.999999999999992 -1.2623983870099874e-07
  outer loop
    vertex -111.54312308998978 103.35240807063488 2.7535228270814115e-07
    vertex -129.13318957701685 103.35240825165083 -0.9999991153640653
    vertex -111.5431230820713 103.35240825165098 -0.9999997867478442
  endloop
endfacet
facet normal -2.863713076945834e-09 -0.999999999999992 -1.2623983870099874e-07
  outer loop
    vertex -129.13318957701685 103.35240825165083 -0.9999991153640653
    vertex -111.54312308998978 103.35240807063488 2.7535228270814115e-07
    vertex -129.1331894596304 103.35240823496328 1.3619072626536165e-06
  endloop
endfacet
facet normal -0.9999999999999931 -8.743361699616498e-15 1.1738637444874574e-07
  outer loop
    vertex -129.13318957701685 103.35240825165083 -0.9999991153640653
    vertex -129.13318945963056 120.10896422450045 1.3619073613524434e-06
    vertex -129.133189577017 120.10896424118799 -0.9999991153639552
  endloop
endfacet
facet normal -0.9999999999999931 -8.743361699616498e-15 1.1738637444874574e-07
  outer loop
    vertex -129.13318945963056 120.10896422450045 1.3619073613524434e-06
    vertex -129.13318957701685 103.35240825165083 -0.9999991153640653
    vertex -129.1331894596304 103.35240823496328 1.3619072626536165e-06
  endloop
endfacet
facet normal 2.8408727731463457e-09 0.9999999999999922 1.2536624639275912e-07
  outer loop
    vertex -129.13318945963056 120.10896422450045 1.3619073613524434e-06
    vertex -111.54312308207183 120.10896424118816 -0.9999991153637579
    vertex -129.133189577017 120.10896424118799 -0.9999991153639552
  endloop
endfacet
facet normal 2.8408727731463457e-09 0.9999999999999922 1.2536624639275912e-07
  outer loop
    vertex -111.54312308207183 120.10896424118816 -0.9999991153637579
    vertex -129.13318945963056 120.10896422450045 1.3619073613524434e-06
    vertex -111.54312305089279 120.10896406148247 1.2008843819133474e-06
  endloop
endfacet
endsolid enclosure
