solid enclosure
facet normal -0.9961946980917454 -0.0871557427476416 5.787919304029765e-08
  outer loop
    vertex -30.035458974197184 178.5928525632899 1.0000005785169879
    vertex -28.662755639875463 162.9027886287552 11.50000435404676
    vertex -30.035458588151045 178.59285512369934 11.500000578516524
  endloop
endfacet
facet normal -0.9961946980917454 -0.0871557427476416 5.787919304029765e-08
  outer loop
    vertex -28.662755639875463 162.9027886287552 11.50000435404676
    vertex -30.035458974197184 178.5928525632899 1.0000005785169879
    vertex -28.662756025921677 162.90278606834562 1.0000043540472607
  endloop
endfacet
facet normal 0.9961946980917448 -0.08715574274766598 -1.5373595772402534e-08
  outer loop
    vertex -18.05160554688916 162.90278862875465 11.500003963913967
    vertex -16.678902984659672 178.59285256329017 1.0000008191660579
    vertex -16.678902598613554 178.5928551236993 11.500000087445382
  endloop
endfacet
facet normal 0.9961946980917448 -0.08715574274766598 -1.5373595772402534e-08
  outer loop
    vertex -16.678902984659672 178.59285256329017 1.0000008191660579
    vertex -18.05160554688916 162.90278862875465 11.500003963913967
    vertex -18.05160593293535 162.90278606834528 1.0000039639144407
  endloop
endfacet
facet normal 3.676630469256143e-08 2.438485166686638e-07 0.9999999999999697
  outer loop
    vertex -28.662755639875463 162.9027886287552 11.50000435404676
    vertex -23.357180593382104 163.4597883511124 11.500004023156773
    vertex -30.035458588151045 178.59285512369934 11.500000578516524
  endloop
endfacet
facet normal 3.676630469256143e-08 2.438485166686638e-07 0.9999999999999697
  outer loop
    vertex -30.035458588151045 178.59285512369934 11.500000578516524
    vertex -16.678902598613554 178.5928551236993 11.500000087445382
    vertex -23.357180593382076 179.18849666160403 11.500000187734628
  endloop
endfacet
facet normal 3.676630469256143e-08 2.438485166686638e-07 0.9999999999999697
  outer loop
    vertex -16.678902598613554 178.5928551236993 11.500000087445382
    vertex -30.035458588151045 178.59285512369934 11.500000578516524
    vertex -18.05160554688916 162.90278862875465 11.500003963913967
  endloop
endfacet
facet normal 3.676630469256143e-08 2.438485166686638e-07 0.9999999999999697
  outer loop
    vertex -18.05160554688916 162.90278862875465 11.500003963913967
    vertex -30.035458588151045 178.59285512369934 11.500000578516524
    vertex -23.357180593382104 163.4597883511124 11.500004023156773
  endloop
endfacet
facet normal 0.1044100485117767 -0.9945343341331719 2.38676946485445e-07
  outer loop
    vertex -23.357180593382104 163.4597883511124 11.500004023156773
    vertex -28.662756025921677 162.90278606834562 1.0000043540472607
    vertex -23.357180979428307 163.4597857907031 1.0000040231572582
  endloop
endfacet
facet normal 0.1044100485117767 -0.9945343341331719 2.38676946485445e-07
  outer loop
    vertex -28.662756025921677 162.90278606834562 1.0000043540472607
    vertex -23.357180593382104 163.4597883511124 11.500004023156773
    vertex -28.662755639875463 162.9027886287552 11.50000435404676
  endloop
endfacet
facet normal -0.1044100485118225 -0.9945343341331652 2.463544807505909e-07
  outer loop
    vertex -18.05160554688916 162.90278862875465 11.500003963913967
    vertex -23.357180979428307 163.4597857907031 1.0000040231572582
    vertex -18.05160593293535 162.90278606834528 1.0000039639144407
  endloop
endfacet
facet normal -0.1044100485118225 -0.9945343341331652 2.463544807505909e-07
  outer loop
    vertex -23.357180979428307 163.4597857907031 1.0000040231572582
    vertex -18.05160554688916 162.90278862875465 11.500003963913967
    vertex -23.357180593382104 163.4597883511124 11.500004023156773
  endloop
endfacet
facet normal 0.08864422974397232 0.9960633397783627 -0.00015389175385327255
  outer loop
    vertex -23.35619043193346 179.18578364966854 1.0000009200799234
    vertex -16.678902598613554 178.5928551236993 11.500000087445382
    vertex -16.678902984659672 178.59285256329017 1.0000008191660579
  endloop
endfacet
facet normal 0.08864422974397232 0.9960633397783627 -0.00015389175385327255
  outer loop
    vertex -16.678902598613554 178.5928551236993 11.500000087445382
    vertex -23.35619043193346 179.18578364966854 1.0000009200799234
    vertex -23.357180593382076 179.18849666160403 11.500000187734628
  endloop
endfacet
facet normal 0.0882234444496843 0.9960995420808738 -0.0015251608790194135
  outer loop
    vertex -23.357674520907125 179.1828530726699 1.8912879437005257e-07
    vertex -16.678902984659672 178.59285256329017 1.0000008191660579
    vertex -16.678903021425985 178.59285231944133 8.744585779929536e-08
  endloop
endfacet
facet normal 0.0882234444496843 0.9960995420808738 -0.0015251608790194135
  outer loop
    vertex -16.678902984659672 178.59285256329017 1.0000008191660579
    vertex -23.357674520907125 179.1828530726699 1.8912879437005257e-07
    vertex -23.35619043193346 179.18578364966854 1.0000009200799234
  endloop
endfacet
facet normal -3.178972397226347e-09 -2.124288188334074e-07 -0.9999999999999775
  outer loop
    vertex -16.678902984659672 178.59285256329017 1.0000008191660579
    vertex -30.035458974197184 178.5928525632899 1.0000005785169879
    vertex -23.35619043193346 179.18578364966854 1.0000009200799234
  endloop
endfacet
facet normal -3.178972397226347e-09 -2.124288188334074e-07 -0.9999999999999775
  outer loop
    vertex -30.035458974197184 178.5928525632899 1.0000005785169879
    vertex -16.678902984659672 178.59285256329017 1.0000008191660579
    vertex -21.942967417055197 172.01847097075776 1.000001884139413
  endloop
endfacet
facet normal -3.178972397226347e-09 -2.124288188334074e-07 -0.9999999999999775
  outer loop
    vertex -21.942967417055197 172.01847097075776 1.000001884139413
    vertex -16.678902984659672 178.59285256329017 1.0000008191660579
    vertex -21.625130171859414 171.60425740838468 1.000001973459079
  endloop
endfacet
facet normal -3.178972397226347e-09 -2.124288188334074e-07 -0.9999999999999775
  outer loop
    vertex -21.625130171859414 171.60425740838468 1.000001973459079
    vertex -16.678902984659672 178.59285256329017 1.0000008191660579
    vertex -21.425329326850157 171.12189549858994 1.0000020837363655
  endloop
endfacet
facet normal -3.178972397226347e-09 -2.124288188334074e-07 -0.9999999999999775
  outer loop
    vertex -21.425329326850157 171.12189549858994 1.0000020837363655
    vertex -16.678902984659672 178.59285256329017 1.0000008191660579
    vertex -18.05160593293535 162.90278606834528 1.0000039639144407
  endloop
endfacet
facet normal -3.178972397226347e-09 -2.124288188334074e-07 -0.9999999999999775
  outer loop
    vertex -30.035458974197184 178.5928525632899 1.0000005785169879
    vertex -21.942967417055197 172.01847097075776 1.000001884139413
    vertex -22.3571809794283 172.33630821595355 1.0000018218643756
  endloop
endfacet
facet normal -3.178972397226347e-09 -2.124288188334074e-07 -0.9999999999999775
  outer loop
    vertex -30.035458974197184 178.5928525632899 1.0000005785169879
    vertex -22.3571809794283 172.33630821595355 1.0000018218643756
    vertex -22.839542889223253 172.53610906096276 1.00000179087791
  endloop
endfacet
facet normal -3.178972397226347e-09 -2.124288188334074e-07 -0.9999999999999775
  outer loop
    vertex -30.035458974197184 178.5928525632899 1.0000005785169879
    vertex -22.839542889223253 172.53610906096276 1.00000179087791
    vertex -23.357180979428307 172.60425740838463 1.0000017932916814
  endloop
endfacet
facet normal -3.178972397226347e-09 -2.124288188334074e-07 -0.9999999999999775
  outer loop
    vertex -21.425329326850157 171.12189549858994 1.0000020837363655
    vertex -18.05160593293535 162.90278606834528 1.0000039639144407
    vertex -21.357180979428293 170.6042574083849 1.0000022074561021
  endloop
endfacet
facet normal -3.178972397226347e-09 -2.124288188334074e-07 -0.9999999999999775
  outer loop
    vertex -21.357180979428293 170.6042574083849 1.0000022074561021
    vertex -18.05160593293535 162.90278606834528 1.0000039639144407
    vertex -21.425329326850143 170.08661931817986 1.000002336186942
  endloop
endfacet
facet normal -3.178972397226347e-09 -2.124288188334074e-07 -0.9999999999999775
  outer loop
    vertex -21.425329326850143 170.08661931817986 1.000002336186942
    vertex -18.05160593293535 162.90278606834528 1.0000039639144407
    vertex -21.625130171859404 169.60425740838474 1.000002461156131
  endloop
endfacet
facet normal -3.178972397226347e-09 -2.124288188334074e-07 -0.9999999999999775
  outer loop
    vertex -21.625130171859404 169.60425740838474 1.000002461156131
    vertex -18.05160593293535 162.90278606834528 1.0000039639144407
    vertex -21.942967417055197 169.19004384601163 1.0000025738471987
  endloop
endfacet
facet normal -3.178972397226347e-09 -2.124288188334074e-07 -0.9999999999999775
  outer loop
    vertex -21.942967417055197 169.19004384601163 1.0000025738471987
    vertex -18.05160593293535 162.90278606834528 1.0000039639144407
    vertex -22.357180979428293 168.87220660081587 1.0000026665804456
  endloop
endfacet
facet normal -3.178972397226347e-09 -2.124288188334074e-07 -0.9999999999999775
  outer loop
    vertex -22.357180979428293 168.87220660081587 1.0000026665804456
    vertex -18.05160593293535 162.90278606834528 1.0000039639144407
    vertex -22.839542889223242 168.67240575580664 1.000002733036268
  endloop
endfacet
facet normal -3.178972397226347e-09 -2.124288188334074e-07 -0.9999999999999775
  outer loop
    vertex -22.839542889223242 168.67240575580664 1.000002733036268
    vertex -18.05160593293535 162.90278606834528 1.0000039639144407
    vertex -23.357180979428293 168.60425740838477 1.000002768685785
  endloop
endfacet
facet normal -3.178972397226347e-09 -2.124288188334074e-07 -0.9999999999999775
  outer loop
    vertex -23.357180979428293 168.60425740838477 1.000002768685785
    vertex -18.05160593293535 162.90278606834528 1.0000039639144407
    vertex -23.357180979428307 163.4597857907031 1.0000040231572582
  endloop
endfacet
facet normal -3.178972397226347e-09 -2.124288188334074e-07 -0.9999999999999775
  outer loop
    vertex -30.035458974197184 178.5928525632899 1.0000005785169879
    vertex -25.289032632006435 171.12189549858974 1.000002225790526
    vertex -28.662756025921677 162.90278606834562 1.0000043540472607
  endloop
endfacet
facet normal -3.178972397226347e-09 -2.124288188334074e-07 -0.9999999999999775
  outer loop
    vertex -25.289032632006435 171.12189549858974 1.000002225790526
    vertex -30.035458974197184 178.5928525632899 1.0000005785169879
    vertex -25.08923178699718 171.6042574083849 1.000002100821337
  endloop
endfacet
facet normal -3.178972397226347e-09 -2.124288188334074e-07 -0.9999999999999775
  outer loop
    vertex -25.08923178699718 171.6042574083849 1.000002100821337
    vertex -30.035458974197184 178.5928525632899 1.0000005785169879
    vertex -24.771394541801392 172.018470970758 1.000001988130258
  endloop
endfacet
facet normal -3.178972397226347e-09 -2.124288188334074e-07 -0.9999999999999775
  outer loop
    vertex -24.771394541801392 172.018470970758 1.000001988130258
    vertex -30.035458974197184 178.5928525632899 1.0000005785169879
    vertex -24.357180979428296 172.33630821595355 1.000001895397011
  endloop
endfacet
facet normal -3.178972397226347e-09 -2.124288188334074e-07 -0.9999999999999775
  outer loop
    vertex -24.357180979428296 172.33630821595355 1.000001895397011
    vertex -30.035458974197184 178.5928525632899 1.0000005785169879
    vertex -23.874819069633336 172.5361090609628 1.0000018289411985
  endloop
endfacet
facet normal -3.178972397226347e-09 -2.124288188334074e-07 -0.9999999999999775
  outer loop
    vertex -23.874819069633336 172.5361090609628 1.0000018289411985
    vertex -30.035458974197184 178.5928525632899 1.0000005785169879
    vertex -23.357180979428307 172.60425740838463 1.0000017932916814
  endloop
endfacet
facet normal -3.178972397226347e-09 -2.124288188334074e-07 -0.9999999999999775
  outer loop
    vertex -28.662756025921677 162.90278606834562 1.0000043540472607
    vertex -25.289032632006435 171.12189549858974 1.000002225790526
    vertex -25.357180979428303 170.6042574083847 1.0000023545213628
  endloop
endfacet
facet normal -3.178972397226347e-09 -2.124288188334074e-07 -0.9999999999999775
  outer loop
    vertex -28.662756025921677 162.90278606834562 1.0000043540472607
    vertex -25.357180979428303 170.6042574083847 1.0000023545213628
    vertex -25.289032632006435 170.08661931817966 1.000002478241091
  endloop
endfacet
facet normal -3.178972397226347e-09 -2.124288188334074e-07 -0.9999999999999775
  outer loop
    vertex -28.662756025921677 162.90278606834562 1.0000043540472607
    vertex -25.289032632006435 170.08661931817966 1.000002478241091
    vertex -25.089231786997175 169.60425740838497 1.000002588518383
  endloop
endfacet
facet normal -3.178972397226347e-09 -2.124288188334074e-07 -0.9999999999999775
  outer loop
    vertex -28.662756025921677 162.90278606834562 1.0000043540472607
    vertex -25.089231786997175 169.60425740838497 1.000002588518383
    vertex -24.771394541801392 169.19004384601183 1.0000026778380438
  endloop
endfacet
facet normal -3.178972397226347e-09 -2.124288188334074e-07 -0.9999999999999775
  outer loop
    vertex -28.662756025921677 162.90278606834562 1.0000043540472607
    vertex -24.771394541801392 169.19004384601183 1.0000026778380438
    vertex -24.357180979428307 168.87220660081587 1.0000027401130867
  endloop
endfacet
facet normal -3.178972397226347e-09 -2.124288188334074e-07 -0.9999999999999775
  outer loop
    vertex -28.662756025921677 162.90278606834562 1.0000043540472607
    vertex -24.357180979428307 168.87220660081587 1.0000027401130867
    vertex -23.874819069633336 168.67240575580666 1.0000027710995523
  endloop
endfacet
facet normal -3.178972397226347e-09 -2.124288188334074e-07 -0.9999999999999775
  outer loop
    vertex -28.662756025921677 162.90278606834562 1.0000043540472607
    vertex -23.874819069633336 168.67240575580666 1.0000027710995523
    vertex -23.357180979428293 168.60425740838477 1.000002768685785
  endloop
endfacet
facet normal -3.178972397226347e-09 -2.124288188334074e-07 -0.9999999999999775
  outer loop
    vertex -28.662756025921677 162.90278606834562 1.0000043540472607
    vertex -23.357180979428293 168.60425740838477 1.000002768685785
    vertex -23.357180979428307 163.4597857907031 1.0000040231572582
  endloop
endfacet
facet normal -0.08863115606953019 0.9960645015295333 -0.0001642148018676365
  outer loop
    vertex -30.035458974197184 178.5928525632899 1.0000005785169879
    vertex -23.357180593382076 179.18849666160403 11.500000187734628
    vertex -23.35619043193346 179.18578364966854 1.0000009200799234
  endloop
endfacet
facet normal -0.08863115606953019 0.9960645015295333 -0.0001642148018676365
  outer loop
    vertex -23.357180593382076 179.18849666160403 11.500000187734628
    vertex -30.035458974197184 178.5928525632899 1.0000005785169879
    vertex -30.035458588151045 178.59285512369934 11.500000578516524
  endloop
endfacet
facet normal -0.08821699467753306 0.9961003051720285 -0.0013942332142769243
  outer loop
    vertex -23.357674520907125 179.1828530726699 1.8912879437005257e-07
    vertex -30.035458974197184 178.5928525632899 1.0000005785169879
    vertex -23.35619043193346 179.18578364966854 1.0000009200799234
  endloop
endfacet
facet normal -0.08821699467753306 0.9961003051720285 -0.0013942332142769243
  outer loop
    vertex -30.035458974197184 178.5928525632899 1.0000005785169879
    vertex -23.357674520907125 179.1828530726699 1.8912879437005257e-07
    vertex -30.035459010963482 178.59285231944133 5.785171052430371e-07
  endloop
endfacet
facet normal -9.170335289813558e-09 0.999999999999974 -2.2825905686509825e-07
  outer loop
    vertex -14.97890320113196 178.59285235062035 -4.949875774151735e-07
    vertex -16.678902984659672 178.59285256329017 1.0000008191660579
    vertex -14.978902984659962 178.59285256328988 0.9999998212605313
  endloop
endfacet
facet normal -9.170335289813558e-09 0.999999999999974 -2.2825905686509825e-07
  outer loop
    vertex -16.678902984659672 178.59285256329017 1.0000008191660579
    vertex -14.97890320113196 178.59285235062035 -4.949875774151735e-07
    vertex -16.678903021425985 178.59285231944133 8.744585779929536e-08
  endloop
endfacet
facet normal 4.6162590187360706e-08 2.2726533014112315e-07 0.9999999999999732
  outer loop
    vertex -31.73545897419717 161.00278606834544 1.0000047266489838
    vertex -30.035458974197184 178.5928525632899 1.0000005785169879
    vertex -31.735458974197105 178.59285256329062 1.0000011087212655
  endloop
endfacet
facet normal 4.6162590187360706e-08 2.2726533014112315e-07 0.9999999999999732
  outer loop
    vertex -30.035458974197184 178.5928525632899 1.0000005785169879
    vertex -31.73545897419717 161.00278606834544 1.0000047266489838
    vertex -28.662756025921677 162.90278606834562 1.0000043540472607
  endloop
endfacet
facet normal 4.6162590187360706e-08 2.2726533014112315e-07 0.9999999999999732
  outer loop
    vertex -28.662756025921677 162.90278606834562 1.0000043540472607
    vertex -31.73545897419717 161.00278606834544 1.0000047266489838
    vertex -18.05160593293535 162.90278606834528 1.0000039639144407
  endloop
endfacet
facet normal 4.6162590187360706e-08 2.2726533014112315e-07 0.9999999999999732
  outer loop
    vertex -18.05160593293535 162.90278606834528 1.0000039639144407
    vertex -14.978902984659962 178.59285256328988 0.9999998212605313
    vertex -16.678902984659672 178.59285256329017 1.0000008191660579
  endloop
endfacet
facet normal 4.6162590187360706e-08 2.2726533014112315e-07 0.9999999999999732
  outer loop
    vertex -14.978902984659962 178.59285256328988 0.9999998212605313
    vertex -18.05160593293535 162.90278606834528 1.0000039639144407
    vertex -14.978902984660005 161.00278606834524 1.0000041105722233
  endloop
endfacet
facet normal 4.6162590187360706e-08 2.2726533014112315e-07 0.9999999999999732
  outer loop
    vertex -14.978902984660005 161.00278606834524 1.0000041105722233
    vertex -18.05160593293535 162.90278606834528 1.0000039639144407
    vertex -31.73545897419717 161.00278606834544 1.0000047266489838
  endloop
endfacet
facet normal 4.6162590187360706e-08 2.2726533014112315e-07 0.9999999999999732
  outer loop
    vertex -18.05160593293535 162.90278606834528 1.0000039639144407
    vertex -23.357180979428307 163.4597857907031 1.0000040231572582
    vertex -28.662756025921677 162.90278606834562 1.0000043540472607
  endloop
endfacet
facet normal -5.772513716807004e-08 -2.0667846418633627e-07 -0.9999999999999771
  outer loop
    vertex -14.978903038113879 161.00278594188308 3.633300916527915e-06
    vertex -16.678903021425985 178.59285231944133 8.744585779929536e-08
    vertex -14.97890320113196 178.59285235062035 -4.949875774151735e-07
  endloop
endfacet
facet normal -5.772513716807004e-08 -2.0667846418633627e-07 -0.9999999999999771
  outer loop
    vertex -16.678903021425985 178.59285231944133 8.744585779929536e-08
    vertex -14.978903038113879 161.00278594188308 3.633300916527915e-06
    vertex -30.035459010963482 178.59285231944133 5.785171052430371e-07
  endloop
endfacet
facet normal -5.772513716807004e-08 -2.0667846418633627e-07 -0.9999999999999771
  outer loop
    vertex -30.035459010963482 178.59285231944133 5.785171052430371e-07
    vertex -14.978903038113879 161.00278594188308 3.633300916527915e-06
    vertex -31.735459191979523 178.59285231152364 1.0466211836090977e-06
  endloop
endfacet
facet normal -5.772513716807004e-08 -2.0667846418633627e-07 -0.9999999999999771
  outer loop
    vertex -31.735459191979523 178.59285231152364 1.0466211836090977e-06
    vertex -14.978903038113879 161.00278594188308 3.633300916527915e-06
    vertex -31.735459027651046 161.0027859418833 4.2493776587160245e-06
  endloop
endfacet
facet normal -5.772513716807004e-08 -2.0667846418633627e-07 -0.9999999999999771
  outer loop
    vertex -30.035459010963482 178.59285231944133 5.785171052430371e-07
    vertex -23.357674520907125 179.1828530726699 1.8912879437005257e-07
    vertex -16.678903021425985 178.59285231944133 8.744585779929536e-08
  endloop
endfacet
facet normal -2.328594113299537e-09 0.9999999999999695 -2.478077420515653e-07
  outer loop
    vertex -31.735459191979523 178.59285231152364 1.0466211836090977e-06
    vertex -30.035458974197184 178.5928525632899 1.0000005785169879
    vertex -30.035459010963482 178.59285231944133 5.785171052430371e-07
  endloop
endfacet
facet normal -2.328594113299537e-09 0.9999999999999695 -2.478077420515653e-07
  outer loop
    vertex -30.035458974197184 178.5928525632899 1.0000005785169879
    vertex -31.735459191979523 178.59285231152364 1.0466211836090977e-06
    vertex -31.735458974197105 178.59285256329062 1.0000011087212655
  endloop
endfacet
facet normal -0.9999999999999867 -2.8636800347740635e-09 1.6300614443309844e-07
  outer loop
    vertex -31.735459191979523 178.59285231152364 1.0466211836090977e-06
    vertex -31.73545897419717 161.00278606834544 1.0000047266489838
    vertex -31.735458974197105 178.59285256329062 1.0000011087212655
  endloop
endfacet
facet normal -0.9999999999999867 -2.8636800347740635e-09 1.6300614443309844e-07
  outer loop
    vertex -31.73545897419717 161.00278606834544 1.0000047266489838
    vertex -31.735459191979523 178.59285231152364 1.0466211836090977e-06
    vertex -31.735459027651046 161.0027859418833 4.2493776587160245e-06
  endloop
endfacet
facet normal -6.358590267988964e-15 -0.999999999999992 1.2646213498587864e-07
  outer loop
    vertex -31.73545897419717 161.00278606834544 1.0000047266489838
    vertex -14.978903038113879 161.00278594188308 3.633300916527915e-06
    vertex -14.978902984660005 161.00278606834524 1.0000041105722233
  endloop
endfacet
facet normal -6.358590267988964e-15 -0.999999999999992 1.2646213498587864e-07
  outer loop
    vertex -14.978903038113879 161.00278594188308 3.633300916527915e-06
    vertex -31.73545897419717 161.00278606834544 1.0000047266489838
    vertex -31.735459027651046 161.0027859418833 4.2493776587160245e-06
  endloop
endfacet
facet normal 0.9999999999999869 2.840839965586193e-09 -1.6213255211928927e-07
  outer loop
    vertex -14.978903038113879 161.00278594188308 3.633300916527915e-06
    vertex -14.978902984659962 178.59285256328988 0.9999998212605313
    vertex -14.978902984660005 161.00278606834524 1.0000041105722233
  endloop
endfacet
facet normal 0.9999999999999869 2.840839965586193e-09 -1.6213255211928927e-07
  outer loop
    vertex -14.978902984659962 178.59285256328988 0.9999998212605313
    vertex -14.978903038113879 161.00278594188308 3.633300916527915e-06
    vertex -14.97890320113196 178.59285235062035 -4.949875774151735e-07
  endloop
endfacet
endsolid enclosure
